<?xml version="1.0" encoding="UTF-8" standalone="no"?>
<!-- Created with Inkscape (http://www.inkscape.org/) -->

<svg
   width="210.09265mm"
   height="143.81061mm"
   viewBox="0 0 210.09265 143.81061"
   version="1.1"
   id="svg360"
   inkscape:version="1.2.1 (9c6d41e410, 2022-07-14)"
   sodipodi:docname="rackdat_logo.svg"
   xmlns:inkscape="http://www.inkscape.org/namespaces/inkscape"
   xmlns:sodipodi="http://sodipodi.sourceforge.net/DTD/sodipodi-0.dtd"
   xmlns="http://www.w3.org/2000/svg"
   xmlns:svg="http://www.w3.org/2000/svg">
  <sodipodi:namedview
     id="namedview362"
     pagecolor="#ffffff"
     bordercolor="#000000"
     borderopacity="0.25"
     inkscape:showpageshadow="2"
     inkscape:pageopacity="0.0"
     inkscape:pagecheckerboard="0"
     inkscape:deskcolor="#d1d1d1"
     inkscape:document-units="mm"
     showgrid="false"
     inkscape:zoom="0.54362802"
     inkscape:cx="383.53432"
     inkscape:cy="540.81098"
     inkscape:window-width="1920"
     inkscape:window-height="1017"
     inkscape:window-x="1912"
     inkscape:window-y="-8"
     inkscape:window-maximized="1"
     inkscape:current-layer="layer1" />
  <defs
     id="defs357" />
  <g
     inkscape:label="Layer 1"
     inkscape:groupmode="layer"
     id="layer1">
    <g
       id="g2256"
       transform="matrix(1.7094013,0,0,1.7094013,-74.440797,-91.032834)"
       style="stroke-width:1.40215"
       inkscape:export-filename="D:\Documents\inkscape\rackdat\rackdat1.png"
       inkscape:export-xdpi="600"
       inkscape:export-ydpi="600">
      <path
         inkscape:connector-curvature="0"
         id="path2186"
         d="m 127.58417,53.254222 -36.428778,21.0323 v 27.746628 h 6.569107 c 1.569987,0 2.954051,0.29969 4.152201,0.89969 1.19815,0.58636 2.13483,1.41168 2.80965,2.4753 0.67482,1.06363 1.01182,2.32467 1.01182,3.78375 0,1.44544 -0.337,2.707 -1.01182,3.78426 -0.67482,1.06363 -1.6115,1.89547 -2.80965,2.49545 -1.19815,0.58637 -2.582213,0.87954 -4.152201,0.87954 h -6.569107 l 36.428778,21.03231 32.48122,-18.75338 v -2.27893 h -3.94808 v -4.41575 c -1.78753,-0.42968 -3.46931,-1.14379 -4.99453,-2.09083 l -3.13779,3.13779 -5.58312,-5.58312 3.13728,-3.13779 c -0.9471,-1.52527 -1.66114,-3.20745 -2.09083,-4.995052 h -4.41524 v -7.895636 h 4.41524 c 0.42967,-1.7877 1.14368,-3.46976 2.09083,-4.99504 l -3.13728,-3.13728 5.58312,-5.58312 3.13728,3.13728 c 1.52527,-0.947 3.20744,-1.66066 4.99504,-2.09032 v -4.41575 h 3.94808 v -2.27893 z m 32.48122,35.67792 c -3.59058,0 -6.38721,2.7956 -6.38721,6.386166 0,3.59057 2.79663,6.387212 6.38721,6.387212 1.5049,0 2.86926,-0.49247 3.94756,-1.32757 0.004,-0.003 0.008,-0.006 0.0114,-0.009 0.0859,-0.0668 0.17004,-0.1361 0.25218,-0.20722 0.003,-0.003 0.007,-0.005 0.0103,-0.008 0.003,-0.002 0.005,-0.005 0.008,-0.007 0.0862,-0.0752 0.17029,-0.152242 0.25218,-0.232032 0.25185,-0.2454 0.48278,-0.51204 0.6904,-0.79736 10e-4,-0.002 0.002,-0.003 0.004,-0.005 0.004,-0.005 0.007,-0.0101 0.0103,-0.015 0.0612,-0.0848 0.12024,-0.17143 0.17725,-0.25942 0.0102,-0.0157 0.0199,-0.0317 0.03,-0.0475 0.0524,-0.0825 0.10275,-0.16649 0.15141,-0.25167 0.009,-0.0164 0.0187,-0.0326 0.0279,-0.0491 0.0459,-0.082 0.09,-0.16528 0.13229,-0.2496 0.0111,-0.0222 0.0227,-0.0443 0.0336,-0.0667 0.0423,-0.087 0.0824,-0.17531 0.12092,-0.26458 0.007,-0.0165 0.0148,-0.0326 0.0217,-0.0491 0.0899,-0.21347 0.16823,-0.43341 0.23513,-0.65888 0.007,-0.0242 0.0132,-0.049 0.0202,-0.0734 0.025,-0.088 0.0484,-0.17646 0.0698,-0.26613 0.008,-0.0322 0.015,-0.0647 0.0222,-0.0971 0.0181,-0.0815 0.0346,-0.16379 0.0496,-0.2465 0.007,-0.0369 0.0131,-0.074 0.0191,-0.1111 0.0132,-0.0804 0.0249,-0.16133 0.0351,-0.24288 0.005,-0.0394 0.0102,-0.0787 0.0145,-0.11834 0.009,-0.0804 0.0149,-0.16198 0.0207,-0.24339 0.003,-0.0414 0.007,-0.0824 0.009,-0.12403 0.006,-0.1189 0.01,-0.23836 0.01,-0.35915 0,-0.12079 -0.004,-0.24025 -0.01,-0.359146 -0.002,-0.0416 -0.006,-0.0826 -0.009,-0.12402 -0.006,-0.0814 -0.012,-0.16297 -0.0207,-0.2434 -0.004,-0.0397 -0.01,-0.0789 -0.0145,-0.11834 -0.0103,-0.0815 -0.0219,-0.16244 -0.0351,-0.24288 -0.006,-0.037 -0.0125,-0.0739 -0.0191,-0.11058 -0.0153,-0.0842 -0.0322,-0.16773 -0.0506,-0.25064 -0.007,-0.0301 -0.013,-0.0605 -0.0202,-0.0904 -0.0216,-0.0909 -0.0454,-0.18102 -0.0708,-0.27026 -0.007,-0.024 -0.0131,-0.0484 -0.0202,-0.0724 -0.033,-0.11136 -0.0687,-0.2217 -0.10748,-0.33021 -0.0397,-0.11114 -0.0822,-0.22017 -0.12765,-0.32815 -0.007,-0.0165 -0.0146,-0.0326 -0.0217,-0.0491 -0.0385,-0.0892 -0.0786,-0.17764 -0.12093,-0.26458 -0.0109,-0.0224 -0.0224,-0.0444 -0.0336,-0.0667 -0.0428,-0.0853 -0.0874,-0.16974 -0.13385,-0.2527 -0.008,-0.0139 -0.0153,-0.028 -0.0233,-0.0419 -0.0514,-0.0902 -0.10506,-0.17892 -0.16072,-0.26613 -0.006,-0.01 -0.0127,-0.02 -0.0191,-0.03 -0.0617,-0.0956 -0.12556,-0.18935 -0.19223,-0.28112 -0.27802,-0.38272 -0.59793,-0.7318 -0.95395,-1.04128 -0.089,-0.0774 -0.18049,-0.15248 -0.27388,-0.2248 -1.07834,-0.835 -2.44255,-1.32756 -3.94757,-1.32756 z m -47.56764,13.101008 h 3.27267 l 6.40219,14.31799 h -3.4773 l -1.27073,-3.06803 h -6.63732 l -1.27589,3.06803 h -3.39565 z m 8.8253,0 h 12.47728 v 2.70009 h -4.58215 v 11.6179 h -3.3135 v -11.6179 h -4.58163 z m -26.821093,2.72025 v 8.87749 h 3.057178 c 0.964028,0 1.797222,-0.17773 2.499585,-0.53226 0.71613,-0.36819 1.267,-0.88625 1.65261,-1.55443 0.39938,-0.66817 0.59945,-1.45232 0.59945,-2.35231 0,-0.91363 -0.20007,-1.69777 -0.59945,-2.35232 -0.38561,-0.66818 -0.93648,-1.17921 -1.65261,-1.53375 -0.702364,-0.36818 -1.535557,-0.55242 -2.499585,-0.55242 z m 19.610163,0.53382 -2.27893,5.47976 h 4.54908 z"
         style="opacity:1;vector-effect:none;fill:#c88e00;fill-opacity:1;stroke:none;stroke-width:1.40215;stroke-linecap:square;stroke-linejoin:miter;stroke-miterlimit:4;stroke-dasharray:none;stroke-dashoffset:0;stroke-opacity:1;paint-order:normal" />
      <path
         sodipodi:nodetypes="ccsccscsscccccccccccscscsccc"
         inkscape:connector-curvature="0"
         id="path2188"
         style="font-style:normal;font-variant:normal;font-weight:bold;font-stretch:normal;font-size:27.3232px;line-height:1.25;font-family:Montserrat;-inkscape-font-specification:'Montserrat Bold';letter-spacing:0px;word-spacing:0px;fill:#2e2925;fill-opacity:1;stroke:none;stroke-width:0.193927;stroke-miterlimit:4;stroke-dasharray:none"
         d="m 43.547878,116.35109 v -14.31805 h 6.197667 c 1.281805,0 2.38634,0.21136 3.313604,0.63409 0.927263,0.40909 1.643165,1.00226 2.147706,1.77952 0.50454,0.77727 0.75681,1.70453 0.75681,2.7818 0,1.06363 -0.25227,1.98407 -0.75681,2.76133 -0.504542,0.76363 -1.220444,1.34999 -2.147706,1.75908 -0.927264,0.40909 -2.031799,0.61363 -3.313604,0.61363 H 45.38877 l 1.472712,-1.45225 v 5.44085 z m 9.102184,0 -3.57951,-5.19541 h 3.538601 l 3.620419,5.19541 z m -5.78858,-5.07268 -1.472713,-1.55453 h 4.172686 c 1.022717,0 1.786346,-0.21818 2.290886,-0.65454 0.504542,-0.44999 0.756811,-1.06362 0.756811,-1.84089 0,-0.79091 -0.25227,-1.40454 -0.756811,-1.84089 -0.50454,-0.43636 -1.268169,-0.65454 -2.290886,-0.65454 h -4.172686 l 1.472713,-1.57499 z" />
      <path
         sodipodi:nodetypes="cccscsccccscsccsccsccsccscscscccss"
         inkscape:connector-curvature="0"
         id="path2190"
         style="font-style:normal;font-variant:normal;font-weight:bold;font-stretch:normal;font-size:27.3232px;line-height:1.25;font-family:Montserrat;-inkscape-font-specification:'Montserrat Bold';letter-spacing:0px;word-spacing:0px;fill:#2e2925;fill-opacity:1;stroke:none;stroke-width:0.193927;stroke-miterlimit:4;stroke-dasharray:none"
         d="m 64.974123,116.35109 v -2.14771 l -0.204543,-0.47045 v -3.84541 c 0,-0.68181 -0.211362,-1.21363 -0.634086,-1.59544 -0.409087,-0.38182 -1.043171,-0.57273 -1.902254,-0.57273 -0.586357,0 -1.165897,0.0955 -1.738618,0.28637 -0.559086,0.17727 -1.036354,0.42272 -1.431805,0.73635 l -1.145443,-2.22953 c 0.599995,-0.42272 1.322714,-0.74999 2.16816,-0.9818 0.845447,-0.23182 1.704529,-0.34773 2.577248,-0.34773 1.677256,0 2.979516,0.39545 3.90678,1.18635 0.927263,0.79091 1.390895,2.02499 1.390895,3.70225 v 6.27948 z m -3.354512,0.16364 c -0.859083,0 -1.595439,-0.14318 -2.209069,-0.42955 -0.61363,-0.29999 -1.08408,-0.70226 -1.411349,-1.20681 -0.32727,-0.50454 -0.490905,-1.07044 -0.490905,-1.6977 0,-0.65454 0.156817,-1.22726 0.47045,-1.71817 0.327269,-0.4909 0.838628,-0.87272 1.534076,-1.14545 0.695447,-0.28635 1.602256,-0.42953 2.720427,-0.42953 h 2.924971 v 1.86134 h -2.577247 c -0.749992,0 -1.268169,0.12273 -1.55453,0.36818 -0.272724,0.24545 -0.409086,0.55227 -0.409086,0.92045 0,0.40908 0.156816,0.73635 0.47045,0.9818 0.327269,0.23182 0.770446,0.34773 1.329532,0.34773 0.531813,0 1.009081,-0.12273 1.431804,-0.36818 0.422722,-0.25909 0.729537,-0.63408 0.920445,-1.12499 l 0.490904,1.47271 c -0.231816,0.70909 -0.654539,1.24772 -1.268169,1.6159 -0.613631,0.36818 -1.404533,0.55227 -2.372704,0.55227 z" />
      <path
         sodipodi:nodetypes="sccsccsccccsccsccsccccs"
         inkscape:connector-curvature="0"
         id="path2192"
         style="font-style:normal;font-variant:normal;font-weight:bold;font-stretch:normal;font-size:27.3232px;line-height:1.25;font-family:Montserrat;-inkscape-font-specification:'Montserrat Bold';letter-spacing:0px;word-spacing:0px;fill:#2e2925;fill-opacity:1;stroke:none;stroke-width:0.193927;stroke-miterlimit:4;stroke-dasharray:none"
         d="m 76.246386,116.51473 c -1.186352,0 -2.24316,-0.23864 -3.170423,-0.71591 -0.927263,-0.49091 -1.656802,-1.1659 -2.188615,-2.02498 -0.518178,-0.85908 -0.777265,-1.83407 -0.777265,-2.92497 0,-1.10453 0.259087,-2.07952 0.777265,-2.92497 0.531813,-0.85909 1.261352,-1.52726 2.188615,-2.00453 0.927263,-0.49091 1.984071,-0.73636 3.170423,-0.73636 1.15908,0 2.168161,0.24545 3.027244,0.73636 0.859082,0.47727 1.493167,1.1659 1.902254,2.06589 l -2.474976,1.32953 c -0.286361,-0.51817 -0.647722,-0.89999 -1.08408,-1.14544 -0.422724,-0.24545 -0.886355,-0.36818 -1.390896,-0.36818 -0.545449,0 -1.036354,0.12273 -1.472712,0.36818 -0.43636,0.24545 -0.784084,0.59318 -1.043172,1.04317 -0.245452,0.45 -0.368178,0.99545 -0.368178,1.63635 0,0.64091 0.122726,1.18636 0.368178,1.63635 0.259088,0.44999 0.606812,0.79772 1.043172,1.04317 0.436358,0.24545 0.927263,0.36818 1.472712,0.36818 0.504541,0 0.968172,-0.11591 1.390896,-0.34772 0.436358,-0.24545 0.797719,-0.63409 1.08408,-1.16591 l 2.474976,1.34999 c -0.409087,0.88635 -1.043172,1.57498 -1.902254,2.06589 -0.859083,0.47727 -1.868164,0.71591 -3.027244,0.71591 z" />
      <path
         sodipodi:nodetypes="ccccccccccccccccc"
         inkscape:connector-curvature="0"
         id="path2194"
         style="font-style:normal;font-variant:normal;font-weight:bold;font-stretch:normal;font-size:27.3232px;line-height:1.25;font-family:Montserrat;-inkscape-font-specification:'Montserrat Bold';letter-spacing:0px;word-spacing:0px;fill:#2e2925;fill-opacity:1;stroke:none;stroke-width:0.193927;stroke-miterlimit:4;stroke-dasharray:none"
         d="m 85.591787,114.10111 0.0818,-3.88632 5.13404,-4.86814 h 3.694328 l -4.819319,5.01131 -1.6568,1.34999 z m -2.638615,2.24998 v -15.17713 h 3.190874 v 15.17713 z m 8.202195,0 -3.72269,-4.62269 2.00452,-2.47497 5.473859,7.09766 z" />
      <path
         style="color:#000000;font-style:normal;font-variant:normal;font-weight:normal;font-stretch:normal;font-size:medium;line-height:normal;font-family:sans-serif;font-variant-ligatures:normal;font-variant-position:normal;font-variant-caps:normal;font-variant-numeric:normal;font-variant-alternates:normal;font-feature-settings:normal;text-indent:0;text-align:start;text-decoration:none;text-decoration-line:none;text-decoration-style:solid;text-decoration-color:#000000;letter-spacing:normal;word-spacing:normal;text-transform:none;writing-mode:lr-tb;direction:ltr;text-orientation:mixed;dominant-baseline:auto;baseline-shift:baseline;text-anchor:start;white-space:normal;shape-padding:0;clip-rule:nonzero;display:inline;overflow:visible;visibility:visible;opacity:1;isolation:auto;mix-blend-mode:normal;color-interpolation:sRGB;color-interpolation-filters:linearRGB;solid-color:#000000;solid-opacity:1;vector-effect:none;fill:#2e2925;fill-opacity:1;fill-rule:nonzero;stroke:none;stroke-width:5.60862;stroke-linecap:butt;stroke-linejoin:miter;stroke-miterlimit:4;stroke-dasharray:none;stroke-dashoffset:0;stroke-opacity:1;color-rendering:auto;image-rendering:auto;shape-rendering:auto;text-rendering:auto;enable-background:accumulate"
         d="m 77.331885,67.903652 a 3.7430397,3.7430397 0 0 0 -4.285032,3.108271 3.7430397,3.7430397 0 0 0 3.108863,4.284601 3.7430397,3.7430397 0 0 0 1.96879,-0.222068 l 13.030886,12.895804 6.454232,-2.962 12.128326,12.895588 2.1818,-2.051 L 98.315611,81.389711 91.789744,84.384267 80.233612,72.947525 a 3.7430397,3.7430397 0 0 0 0.206625,-0.759349 3.7430397,3.7430397 0 0 0 -3.108352,-4.284521 z"
         id="path2196"
         inkscape:connector-curvature="0" />
      <path
         style="color:#000000;font-style:normal;font-variant:normal;font-weight:normal;font-stretch:normal;font-size:medium;line-height:normal;font-family:sans-serif;font-variant-ligatures:normal;font-variant-position:normal;font-variant-caps:normal;font-variant-numeric:normal;font-variant-alternates:normal;font-feature-settings:normal;text-indent:0;text-align:start;text-decoration:none;text-decoration-line:none;text-decoration-style:solid;text-decoration-color:#000000;letter-spacing:normal;word-spacing:normal;text-transform:none;writing-mode:lr-tb;direction:ltr;text-orientation:mixed;dominant-baseline:auto;baseline-shift:baseline;text-anchor:start;white-space:normal;shape-padding:0;clip-rule:nonzero;display:inline;overflow:visible;visibility:visible;opacity:1;isolation:auto;mix-blend-mode:normal;color-interpolation:sRGB;color-interpolation-filters:linearRGB;solid-color:#000000;solid-opacity:1;vector-effect:none;fill:#2e2925;fill-opacity:1;fill-rule:nonzero;stroke:none;stroke-width:5.60862;stroke-linecap:butt;stroke-linejoin:miter;stroke-miterlimit:4;stroke-dasharray:none;stroke-dashoffset:0;stroke-opacity:1;color-rendering:auto;image-rendering:auto;shape-rendering:auto;text-rendering:auto;enable-background:accumulate"
         d="m 86.391056,61.895219 -2.106208,2.12844 15.464267,15.305358 6.455725,-2.961242 9.78134,10.399841 a 3.7430397,3.7430397 0 0 0 -0.25957,0.881738 3.7430397,3.7430397 0 0 0 3.10834,4.284518 3.7430397,3.7430397 0 0 0 4.28504,-3.108269 3.7430397,3.7430397 0 0 0 -3.10887,-4.284602 3.7430397,3.7430397 0 0 0 -1.84458,0.174855 l -11.25564,-11.967144 -6.52751,2.99482 z"
         id="path2198"
         inkscape:connector-curvature="0" />
      <path
         style="color:#000000;font-style:normal;font-variant:normal;font-weight:normal;font-stretch:normal;font-size:medium;line-height:normal;font-family:sans-serif;font-variant-ligatures:normal;font-variant-position:normal;font-variant-caps:normal;font-variant-numeric:normal;font-variant-alternates:normal;font-feature-settings:normal;text-indent:0;text-align:start;text-decoration:none;text-decoration-line:none;text-decoration-style:solid;text-decoration-color:#000000;letter-spacing:normal;word-spacing:normal;text-transform:none;writing-mode:lr-tb;direction:ltr;text-orientation:mixed;dominant-baseline:auto;baseline-shift:baseline;text-anchor:start;white-space:normal;shape-padding:0;clip-rule:nonzero;display:inline;overflow:visible;visibility:visible;opacity:1;isolation:auto;mix-blend-mode:normal;color-interpolation:sRGB;color-interpolation-filters:linearRGB;solid-color:#000000;solid-opacity:1;vector-effect:none;fill:#2e2925;fill-opacity:1;fill-rule:nonzero;stroke:none;stroke-width:5.60862;stroke-linecap:butt;stroke-linejoin:miter;stroke-miterlimit:4;stroke-dasharray:none;stroke-dashoffset:0;stroke-opacity:1;color-rendering:auto;image-rendering:auto;shape-rendering:auto;text-rendering:auto;enable-background:accumulate"
         d="m 94.986306,53.254222 -2.106289,2.128948 15.464383,15.304855 6.45415,-2.961491 9.78221,10.401023 a 3.7430397,3.7430397 0 0 0 -0.25899,0.881309 3.7430397,3.7430397 0 0 0 3.10836,4.284518 3.7430397,3.7430397 0 0 0 4.28452,-3.108349 3.7430397,3.7430397 0 0 0 -3.10836,-4.284522 3.7430397,3.7430397 0 0 0 -1.8451,0.174779 l -11.25564,-11.967143 -6.52688,2.994396 z"
         id="path2200"
         inkscape:connector-curvature="0" />
    </g>
  </g>
</svg>
