<?xml version="1.0" encoding="UTF-8" standalone="no"?>
<!-- Created with Inkscape (http://www.inkscape.org/) -->

<svg
   width="210.09265mm"
   height="143.81059mm"
   viewBox="0 0 210.09265 143.81059"
   version="1.1"
   id="svg360"
   xmlns="http://www.w3.org/2000/svg"
   xmlns:svg="http://www.w3.org/2000/svg">
  <defs
     id="defs357" />
  <g
     id="layer1">
    <path
       style="vector-effect:none;fill:#2e2925;fill-opacity:1;stroke:none;stroke-width:2.39687;stroke-linecap:square;stroke-linejoin:miter;stroke-miterlimit:4;stroke-dasharray:none;stroke-dashoffset:0;stroke-opacity:1;paint-order:normal"
       d="m 87.930416,0 -3.600627,3.6394787 19.533921,19.3333833 4.59701,-2.65453 z m 20.530304,20.318332 3.38859,3.35416 11.15694,-5.118231 19.24061,20.457015 a 6.3984291,6.3984291 0 0 1 3.15366,-0.299458 6.3984291,6.3984291 0 0 1 5.31346,7.324884 6.3984291,6.3984291 0 0 1 -7.324,5.31346 6.3984291,6.3984291 0 0 1 -5.31346,-7.324881 6.3984291,6.3984291 0 0 1 0.44256,-1.506141 l -16.72127,-17.779544 -11.03325,5.062587 -6.90085,-6.829321 -14.109203,8.145524 7.401778,7.325773 11.157845,-5.119985 19.24061,20.457008 a 6.3984291,6.3984291 0 0 1 3.15361,-0.298564 6.3984291,6.3984291 0 0 1 5.31437,7.323992 6.3984291,6.3984291 0 0 1 -7.32491,5.313461 6.3984291,6.3984291 0 0 1 -5.31346,-7.323995 6.3984291,6.3984291 0 0 1 0.44345,-1.50703 L 107.10742,39.511261 96.071533,44.572959 85.158411,33.77202 81.381134,35.953072 v 16.18859 l 1.084776,1.073292 11.155158,-5.119117 23.255512,24.723692 -3.7296,3.506088 -20.732617,-22.04445 -11.033229,5.063479 v 24.039069 h 11.229341 c 2.683753,0 5.049728,0.512295 7.097854,1.53795 2.048151,1.002333 3.649311,2.413153 4.802871,4.231328 1.15355,1.81819 1.72966,3.973838 1.72966,6.468022 0,2.470862 -0.57611,4.627395 -1.72966,6.468885 -1.15356,1.8182 -2.75472,3.24018 -4.802871,4.26579 -2.048126,1.00236 -4.414101,1.50349 -7.097854,1.50349 H 87.801417 L 79.439452,97.015845 87.10177,89.047881 H 80.78659 L 72.8151,96.607725 V 81.915562 h -5.4548 v 25.943618 h 5.4548 v -4.7746 l 2.635072,-2.59092 5.930962,7.36552 62.272066,35.95305 55.52408,-32.0574 v -3.89565 h -6.74892 v -7.54837 c -3.05568,-0.734507 -5.93053,-1.955222 -8.53778,-3.574112 l -5.36381,5.363802 -9.54389,-9.5439 5.36296,-5.363802 c -1.619,-2.607326 -2.8396,-5.482864 -3.57412,-8.538623 h -7.54751 v -13.49699 h 7.54751 c 0.73447,-3.055927 1.95505,-5.93128 3.57412,-8.538623 l -5.36296,-5.362928 9.54389,-9.543899 5.36297,5.362929 c 2.60732,-1.618823 5.48287,-2.838751 8.53862,-3.573219 v -7.548373 h 6.74892 V 32.05742 L 143.6532,0 Z M 87.10177,89.047881 v 14.161249 h 5.226042 c 1.647921,0 3.072166,-0.30382 4.27283,-0.90985 1.224202,-0.6294 2.165837,-1.51498 2.825024,-2.657181 0.682724,-1.142186 1.024684,-2.482626 1.024684,-4.021084 0,-1.56178 -0.34196,-2.902189 -1.024684,-4.021092 -0.659187,-1.142198 -1.600822,-2.015781 -2.825024,-2.621839 -1.200664,-0.629375 -2.624909,-0.944319 -4.27283,-0.944319 H 87.10177 Z M 81.381134,59.344646 V 52.141662 L 62.712048,33.664259 a 6.3984291,6.3984291 0 0 0 0.352436,-1.297673 6.3984291,6.3984291 0 0 0 -5.313456,-7.323992 6.3984291,6.3984291 0 0 0 -7.324886,5.312569 6.3984291,6.3984291 0 0 0 5.314367,7.324886 6.3984291,6.3984291 0 0 0 3.365614,-0.379854 z M 85.158411,33.77202 89.754507,31.118386 73.23738,14.771672 69.636729,18.409387 Z M 199.17728,60.98858 c -6.13779,0 -10.91838,4.778872 -10.91838,10.916665 0,6.137795 4.78059,10.91841 10.91838,10.91841 2.57249,0 4.90479,-0.841822 6.74805,-2.269358 0.007,-0.005 0.0144,-0.01031 0.0192,-0.01534 0.14668,-0.114211 0.29064,-0.23264 0.43103,-0.354224 0.005,-0.005 0.012,-0.0086 0.0168,-0.01342 0.005,-0.0034 0.007,-0.0086 0.0144,-0.01199 0.14717,-0.128544 0.2911,-0.260226 0.43108,-0.396624 0.43053,-0.419491 0.82529,-0.875304 1.18017,-1.363036 0.002,-0.0034 0.005,-0.0048 0.007,-0.0086 0.007,-0.0086 0.012,-0.01726 0.0168,-0.02562 0.10451,-0.144938 0.20565,-0.293032 0.30299,-0.44344 0.0168,-0.02685 0.034,-0.05419 0.0513,-0.08121 0.0897,-0.141032 0.17569,-0.284607 0.25887,-0.430214 0.0144,-0.02804 0.0319,-0.0557 0.0477,-0.08394 0.0781,-0.140169 0.15412,-0.282533 0.22603,-0.426672 0.0192,-0.03794 0.0388,-0.07574 0.0575,-0.113995 0.0721,-0.148726 0.14046,-0.299678 0.20661,-0.45228 0.012,-0.02821 0.0254,-0.05573 0.0372,-0.08394 0.15387,-0.364909 0.28757,-0.740859 0.4019,-1.126288 0.012,-0.04137 0.0216,-0.08377 0.0345,-0.125452 0.0427,-0.150427 0.0829,-0.30166 0.11912,-0.454943 0.0144,-0.05506 0.0257,-0.110759 0.0379,-0.165983 0.0312,-0.13933 0.0592,-0.279969 0.0849,-0.421353 0.012,-0.06306 0.0216,-0.126507 0.0328,-0.189952 0.0216,-0.137437 0.0427,-0.275782 0.0599,-0.415184 0.007,-0.06738 0.0168,-0.134512 0.0249,-0.202272 0.0144,-0.137436 0.0254,-0.276896 0.0355,-0.416058 0.005,-0.07076 0.012,-0.140864 0.0144,-0.212004 0.007,-0.203206 0.0168,-0.407458 0.0168,-0.613939 0,-0.206466 -0.007,-0.410687 -0.0168,-0.613935 -0.005,-0.07114 -0.007,-0.141199 -0.0144,-0.212027 -0.007,-0.139162 -0.0216,-0.278579 -0.0355,-0.416068 -0.007,-0.06788 -0.0168,-0.134872 -0.0249,-0.202272 -0.0168,-0.13933 -0.0374,-0.277677 -0.0599,-0.415183 -0.01,-0.06323 -0.0216,-0.126339 -0.0328,-0.189018 -0.0261,-0.143908 -0.0551,-0.286723 -0.0868,-0.428452 -0.012,-0.05149 -0.0216,-0.103425 -0.0348,-0.154551 -0.0369,-0.155413 -0.0774,-0.30945 -0.12104,-0.462001 -0.012,-0.04103 -0.0216,-0.08255 -0.0345,-0.123583 -0.0566,-0.190336 -0.1172,-0.378998 -0.1836,-0.564466 -0.0681,-0.19 -0.14021,-0.376363 -0.21835,-0.560949 -0.012,-0.02823 -0.0252,-0.05573 -0.0371,-0.08394 -0.0657,-0.152489 -0.13447,-0.303681 -0.20661,-0.452297 -0.0192,-0.0383 -0.0383,-0.07588 -0.0575,-0.113995 -0.0729,-0.145826 -0.14956,-0.290156 -0.2289,-0.431969 -0.0144,-0.02373 -0.0271,-0.04784 -0.0405,-0.07162 -0.088,-0.15419 -0.17976,-0.30585 -0.27477,-0.454928 -0.01,-0.01726 -0.0216,-0.0342 -0.0316,-0.05127 -0.10546,-0.163419 -0.21452,-0.323679 -0.32864,-0.480551 -0.47525,-0.654231 -1.0221,-1.250956 -1.63071,-1.779986 -0.15244,-0.132308 -0.30855,-0.260639 -0.46818,-0.38426 -1.84334,-1.427368 -4.17533,-2.269376 -6.74805,-2.269376 z M 0,83.383715 v 24.475465 h 5.6650289 v -6.81783 h 4.9300761 c 0.08916,0 0.175212,-0.003 0.263249,-0.005 l 4.701271,6.82312 h 6.119092 l -5.468054,-7.84782 c 0.01678,-0.007 0.03284,-0.01199 0.04866,-0.01966 1.585075,-0.699306 2.808798,-1.701608 3.671264,-3.006975 0.862418,-1.328665 1.293256,-2.901636 1.293256,-4.71983 0,-1.841507 -0.430838,-3.426498 -1.293256,-4.755182 -0.86247,-1.328703 -2.086193,-2.34304 -3.671268,-3.042346 -1.585099,-0.722621 -3.473018,-1.083892 -5.664142,-1.083892 z m 117.86417,0 h 5.59439 l 10.94402,24.475465 h -5.94415 l -2.17223,-5.24456 h -11.34598 l -2.18101,5.24456 h -5.80461 z m 15.08617,0 h 21.32894 v 4.615604 h -7.83286 v 19.859861 h -5.66414 V 87.999319 h -7.83194 z M 5.6650289,87.999319 h 4.6147201 c 1.74823,0 3.053494,0.372414 3.915984,1.118339 0.862418,0.745907 1.294119,1.795437 1.294119,3.147435 0,1.328682 -0.431701,2.377341 -1.294119,3.146565 -0.86249,0.745903 -2.167754,1.119226 -3.915984,1.119226 H 5.6650289 Z m 27.0107241,0.76941 c -1.491836,0 -2.960136,0.197335 -4.405353,0.593616 -1.445193,0.396263 -2.680948,0.955786 -3.706617,1.678412 l 1.958435,3.811715 c 0.67599,-0.536127 1.491213,-0.955769 2.446918,-1.258784 0.97905,-0.326293 1.97018,-0.489386 2.972528,-0.489386 1.468539,0 2.552404,0.326068 3.251691,0.97876 0.722633,0.652673 1.083889,1.561454 1.083889,2.726954 h -4.33558 c -1.911409,0 -3.462113,0.245473 -4.650889,0.734967 -1.188848,0.466206 -2.062436,1.118385 -2.62189,1.957542 -0.536132,0.839175 -0.804701,1.818315 -0.804701,2.937195 0,1.07225 0.279763,2.03939 0.839168,2.90186 0.559454,0.86249 1.363532,1.55075 2.412475,2.06356 1.048943,0.48951 2.307852,0.73406 3.776391,0.73406 1.655039,0 3.007498,-0.31494 4.05644,-0.94432 0.710673,-0.42638 1.267346,-0.9898 1.678433,-1.68369 v 2.34799 h 5.104928 V 97.125387 c 0,-2.867145 -0.792885,-4.977336 -2.377983,-6.329334 -1.585123,-1.351979 -3.811121,-2.027324 -6.678283,-2.027324 z m 23.220169,0 c -2.027945,0 -3.834371,0.418743 -5.419422,1.257914 -1.585098,0.815852 -2.832886,1.958038 -3.741947,3.426581 -0.885788,1.44523 -1.328586,3.112635 -1.328586,5.000744 0,1.864802 0.442798,3.531332 1.328586,4.999862 0.909061,1.46853 2.156849,2.62186 3.741947,3.46103 1.585051,0.81586 3.391477,1.22434 5.419422,1.22434 1.981397,0 3.706282,-0.40848 5.174797,-1.22434 1.468515,-0.83917 2.55238,-2.01568 3.251667,-3.53082 l -4.23043,-2.30824 c -0.489537,0.90911 -1.107402,1.57331 -1.853308,1.99288 -0.722633,0.39626 -1.51559,0.5945 -2.378008,0.5945 -0.932431,0 -1.771719,-0.20939 -2.517602,-0.62896 -0.74593,-0.41958 -1.339755,-1.01428 -1.782649,-1.78351 -0.419572,-0.76922 -0.629849,-1.701161 -0.629849,-2.796742 0,-1.095569 0.209966,-2.028384 0.629849,-2.797626 0.442894,-0.769216 1.036719,-1.363942 1.782649,-1.783521 0.745883,-0.419577 1.585171,-0.628946 2.517602,-0.628946 0.862418,0 1.655375,0.209366 2.378008,0.628946 0.745906,0.419579 1.363771,1.072662 1.853308,1.95843 l 4.23043,-2.272912 c -0.699287,-1.53846 -1.783152,-2.715844 -3.251667,-3.531696 -1.468515,-0.839171 -3.1934,-1.257914 -5.174797,-1.257914 z m 64.727878,0.17756 -3.89563,9.367217 h 7.77629 z M 32.536184,99.991918 h 3.74106 v 1.923092 c -0.32631,0.83916 -0.850674,1.48019 -1.573258,1.92309 -0.722609,0.41958 -1.53872,0.62984 -2.447829,0.62984 -0.955704,0 -1.713451,-0.19823 -2.272929,-0.59451 -0.536084,-0.41957 -0.803839,-0.9791 -0.803839,-1.67839 0,-0.62938 0.232497,-1.15371 0.69876,-1.57329 0.489489,-0.41957 1.375972,-0.629832 2.658035,-0.629832 z"
       id="path2227" />
  </g>
</svg>
